<svg width="94" height="73" viewBox="0 0 94 73" fill="none" xmlns="http://www.w3.org/2000/svg">
<rect width="94" height="73" fill="#E5E5E5"/>
<rect width="94" height="73" fill="#EFF0F8"/>
<path d="M68.875 18.75H26.125V53.25H68.875V18.75Z" fill="#ECEFF1"/>
<path d="M47.5 39.6283L68.875 53.25V26.3573L47.5 39.6283Z" fill="#CFD8DC"/>
<path d="M70.6562 18.75H68.875L47.5 32.3717L26.125 18.75H24.3438C21.394 18.75 19 20.682 19 23.0625V48.9375C19 51.318 21.394 53.25 24.3438 53.25H26.125V26.3572L47.5 39.6254L68.875 26.3544V53.25H70.6562C73.606 53.25 76 51.318 76 48.9375V23.0625C76 20.682 73.606 18.75 70.6562 18.75Z" fill="#F44336"/>
</svg>
