<svg width="100" height="100" viewBox="0 0 100 100" fill="none" xmlns="http://www.w3.org/2000/svg">
<rect width="100" height="100" fill="#E5E5E5"/>
<rect width="100" height="100" rx="20" fill="#EFF0F8"/>
<g clip-path="url(#clip0)">
<path d="M76.9865 75V74.9979H77V56.6604C77 47.6896 74.9143 40.7792 63.5878 40.7792C58.1427 40.7792 54.4887 43.5458 52.997 46.1687H52.8395V41.6167H42.1002V74.9979H53.2827V58.4688C53.2827 54.1167 54.1737 49.9083 59.9945 49.9083C65.7298 49.9083 65.8153 54.875 65.8153 58.7479V75H76.9865Z" fill="#040E63"/>
<path d="M23.891 41.6187H35.087V75H23.891V41.6187Z" fill="#040E63"/>
<path d="M29.4845 25C25.9048 25 23 27.6896 23 31.0042C23 34.3188 25.9048 37.0646 29.4845 37.0646C33.0642 37.0646 35.969 34.3188 35.969 31.0042C35.9667 27.6896 33.062 25 29.4845 25V25Z" fill="#040E63"/>
</g>
<defs>
<clipPath id="clip0">
<rect width="54" height="50" fill="white" transform="translate(23 25)"/>
</clipPath>
</defs>
</svg>
