<svg width="100" height="100" viewBox="0 0 100 100" fill="none" xmlns="http://www.w3.org/2000/svg">
<rect width="100" height="100" fill="#E5E5E5"/>
<rect width="100" height="100" rx="20" fill="#EFF0F8"/>
<path d="M82.0156 30.1407L88 25.1027V24H67.2687L52.4937 56.362L35.6844 24H13.9469V25.1027L20.9375 32.5085C21.6187 33.0557 21.975 33.856 21.8844 34.6617V63.765C22.1 64.8127 21.7125 65.8907 20.875 66.6525L13 75.051V76.14H35.3281V75.0372L27.4531 66.6525C26.6 65.888 26.1969 64.8292 26.3687 63.765V38.5915L45.9687 76.1537H48.2469L65.1 38.5915V68.5142C65.1 69.3035 65.1 69.4657 64.5125 69.9827L58.45 75.1445V76.25H87.8625V75.1472L82.0187 70.112C81.5062 69.771 81.2406 69.199 81.35 68.6435V31.6092C81.2406 31.051 81.5031 30.479 82.0156 30.1407Z" fill="#040E63"/>
</svg>
