<svg width="100" height="100" viewBox="0 0 100 100" fill="none" xmlns="http://www.w3.org/2000/svg">
<rect width="100" height="100" fill="#E5E5E5"/>
<rect width="100" height="100" rx="20" fill="#EFF0F8"/>
<path d="M89 27.1179C86.0994 28.325 83.0086 29.1251 79.7862 29.5136C83.1012 27.6359 85.6314 24.6851 86.8209 21.1285C83.7301 22.8767 80.3176 24.1116 76.6809 24.8008C73.7461 21.8361 69.5634 20 65.0004 20C56.1474 20 49.0201 26.8173 49.0201 35.1746C49.0201 36.3771 49.1274 37.5334 49.3906 38.6341C36.0965 38.019 24.3331 31.9741 16.4307 22.7658C15.0511 25.0366 14.2419 27.6359 14.2419 30.434C14.2419 35.688 17.0938 40.3454 21.3447 43.0417C18.7756 42.9955 16.2552 42.2879 14.12 41.1733C14.12 41.2195 14.12 41.2796 14.12 41.3397C14.12 48.712 19.6629 54.8355 26.9315 56.2461C25.6299 56.5837 24.2112 56.7456 22.739 56.7456C21.7152 56.7456 20.6817 56.6901 19.7116 56.4866C21.7835 62.4945 27.6628 66.9114 34.6535 67.0547C29.213 71.0924 22.3051 73.5251 14.8269 73.5251C13.5155 73.5251 12.2577 73.4696 11 73.317C18.0834 77.6506 26.4781 80.125 35.531 80.125C64.9565 80.125 81.044 57 81.044 36.9552C81.044 36.2846 81.0196 35.6371 80.9855 34.9943C84.1591 32.8575 86.8257 30.1889 89 27.1179Z" fill="#040E63"/>
</svg>
